Coordinates
version=1
nRows=14
nColumns=40
inDegrees=yes

Units are S.I. units (second, meters, Newtons, ...)
If the header above contains a line with 'inDegrees', this indicates whether rotational values are in degrees (yes) or radians (no).

endheader
time	pelvis_tilt	pelvis_list	pelvis_rotation	pelvis_tx	pelvis_ty	pelvis_tz	hip_flexion_r	hip_adduction_r	hip_rotation_r	knee_angle_r	knee_angle_r_beta	ankle_angle_r	subtalar_angle_r	mtp_angle_r	hip_flexion_l	hip_adduction_l	hip_rotation_l	knee_angle_l	knee_angle_l_beta	ankle_angle_l	subtalar_angle_l	mtp_angle_l	lumbar_extension	lumbar_bending	lumbar_rotation	arm_flex_r	arm_add_r	arm_rot_r	elbow_flex_r	pro_sup_r	wrist_flex_r	wrist_dev_r	arm_flex_l	arm_add_l	arm_rot_l	elbow_flex_l	pro_sup_l	wrist_flex_l	wrist_dev_l
      0.92000000	     -1.54923687	    -10.83728967	     88.11488223	      0.19517239	      0.99970217	      0.50774136	     32.15708190	     -0.38289052	     -1.94381489	     49.98874909	      0.87246826	      0.16931707	      0.00000000	      0.00000000	     10.52739042	      3.79539042	      1.10517186	      4.41519013	      0.07705960	      3.06668950	      0.00000000	     -0.00000000	     -0.05917597	     -2.55643446	     -2.07685544	      0.00000000	      0.00000000	     -0.00000000	      0.00000000	      0.00000000	     -0.00000000	     -0.00000000	     -0.00000000	      0.00000000	      0.00000000	      0.00000000	      0.00000000	      0.00000000	     -0.00000000
      0.93000000	     -1.25369542	    -10.90970223	     88.31150675	      0.19486598	      0.99947985	      0.48953761	     33.20301160	     -0.12598746	     -2.26179535	     47.18469277	      0.82352825	      0.85817708	      0.00000000	      0.00000000	      9.07158622	      3.57662949	      1.46594471	      3.74965686	      0.06544386	      3.76800043	      0.00000000	      0.00000000	     -0.02745946	     -2.16122370	     -2.29656154	      0.00000000	      0.00000000	      0.00000000	      0.00000000	      0.00000000	      0.00000000	      0.00000000	      0.00000000	      0.00000000	      0.00000000	      0.00000000	      0.00000000	      0.00000000	      0.00000000
      0.94000000	     -1.03433471	    -10.72128310	     88.59844827	      0.19445172	      0.99907246	      0.47107421	     33.80438637	     -0.05470920	     -2.74571589	     44.08387288	      0.76940873	      1.33262926	      0.00000000	      0.00000000	      7.31579853	      3.45025038	      1.92888946	      3.06836852	      0.05355313	      4.46704105	      0.00000000	      0.00000000	     -0.29635128	     -1.88317417	     -2.67267810	      0.00000000	      0.00000000	      0.00000000	      0.00000000	      0.00000000	      0.00000000	      0.00000000	      0.00000000	      0.00000000	      0.00000000	      0.00000000	      0.00000000	      0.00000000	      0.00000000
      0.95000000	     -0.92191419	    -10.62526268	     88.88976645	      0.19402592	      0.99791837	      0.45264153	     34.42840302	     -0.11343829	     -3.26642197	     40.80719597	      0.71221993	      1.70285399	      0.00000000	      0.00000000	      5.70645420	      3.42267086	      2.37553392	      2.47700408	      0.04323188	      5.23036818	      0.00000000	      0.00000000	     -0.45448315	     -1.71786738	     -3.04800984	      0.00000000	      0.00000000	      0.00000000	      0.00000000	      0.00000000	      0.00000000	      0.00000000	      0.00000000	      0.00000000	      0.00000000	      0.00000000	      0.00000000	      0.00000000	      0.00000000
      0.96000000	     -0.89349520	    -10.57502195	     89.17291091	      0.19363839	      0.99612604	      0.43416740	     35.00636835	     -0.26504253	     -3.84400057	     37.33460302	      0.65161175	      1.95321777	      0.00000000	      0.00000000	      4.16155511	      3.46367661	      2.80679852	      1.92600742	      0.03361517	      6.05081986	      0.00000000	      0.00000000	     -0.56211182	     -1.65346807	     -3.42055042	      0.00000000	      0.00000000	      0.00000000	      0.00000000	      0.00000000	      0.00000000	      0.00000000	      0.00000000	      0.00000000	      0.00000000	      0.00000000	      0.00000000	      0.00000000	      0.00000000
      0.97000000	     -0.98841864	    -10.57139166	     89.39804594	      0.19330249	      0.99370247	      0.41569758	     35.56714218	     -0.51954602	     -4.43236336	     33.71137379	      0.58837447	      2.09799941	      0.00000000	      0.00000000	      2.68022006	      3.62874101	      3.17995503	      1.41644084	      0.02472156	      6.85434037	      0.00000000	      0.00000000	     -0.61844957	     -1.71089092	     -3.84975184	      0.00000000	      0.00000000	      0.00000000	      0.00000000	      0.00000000	      0.00000000	      0.00000000	      0.00000000	      0.00000000	      0.00000000	      0.00000000	      0.00000000	      0.00000000	      0.00000000
      0.98000000	     -1.13512163	    -10.21661440	     89.58578769	      0.19312773	      0.99126514	      0.39682988	     35.62292933	     -0.81983193	     -5.18487593	     29.90262851	      0.52189932	      2.06893254	      0.00000000	      0.00000000	      0.72108580	      3.82144974	      3.44742512	      0.76731187	      0.01339212	      7.53761339	     -0.00000000	     -0.00000000	     -1.06900420	     -1.86773351	     -4.09237696	     -0.00000000	      0.00000000	      0.00000000	      0.00000000	      0.00000000	     -0.00000000	     -0.00000000	      0.00000000	      0.00000000	      0.00000000	      0.00000000	      0.00000000	      0.00000000	      0.00000000
      0.99000000	     -1.41174036	    -10.29028037	     89.70530496	      0.19304410	      0.98773456	      0.37820787	     36.14149263	     -1.17880790	     -5.90106472	     26.07923272	      0.45516848	      2.00370196	      0.00000000	      0.00000000	     -0.67034838	      4.14283418	      3.68854026	      0.32393227	      0.00565368	      8.34124523	      0.00000000	      0.00000000	     -1.02902385	     -2.14912892	     -4.43136561	      0.00000000	      0.00000000	      0.00000000	      0.00000000	      0.00000000	      0.00000000	      0.00000000	      0.00000000	      0.00000000	      0.00000000	      0.00000000	      0.00000000	      0.00000000	      0.00000000
      1.00000000	     -1.66928935	    -10.11015003	     89.76970164	      0.19318834	      0.98416114	      0.35923503	     36.25610419	     -1.42722298	     -6.60784920	     22.10901490	      0.38587510	      1.74746747	     -0.00000000	     -0.00000000	     -2.41989746	      4.42562884	      3.83629159	     -0.23646215	     -0.00412704	      9.09080396	     -0.00000000	     -0.00000000	     -1.27367926	     -2.41370822	     -4.58742750	     -0.00000000	      0.00000000	     -0.00000000	      0.00000000	      0.00000000	      0.00000000	      0.00000000	     -0.00000000	     -0.00000000	     -0.00000000	      0.00000000	      0.00000000	     -0.00000000	      0.00000000
      1.01000000	     -2.07493548	    -10.25545194	     89.81818965	      0.19337882	      0.97978176	      0.34040237	     36.74689524	     -1.75665813	     -7.15648105	     18.29708022	      0.31934429	      1.74198398	      0.00000000	      0.00000000	     -3.69615437	      4.85213152	      4.00098007	     -0.55226011	     -0.00963876	      9.73447539	      0.00000000	      0.00000000	     -1.14765759	     -2.85838897	     -4.86865859	      0.00000000	      0.00000000	      0.00000000	      0.00000000	      0.00000000	      0.00000000	      0.00000000	      0.00000000	      0.00000000	      0.00000000	      0.00000000	      0.00000000	      0.00000000	      0.00000000
      1.02000000	     -2.31847901	    -10.01130093	     89.84765751	      0.19381380	      0.97569296	      0.32096490	     36.66675265	     -1.86036489	     -7.78699428	     14.46823919	      0.25251841	      1.39426443	      0.00000000	      0.00000000	     -5.52919160	      5.08360864	      4.11867226	     -1.05537628	     -0.01841979	     10.41509519	      0.00000000	      0.00000000	     -1.43675844	     -3.11117217	     -4.97194060	      0.00000000	      0.00000000	      0.00000000	      0.00000000	      0.00000000	      0.00000000	      0.00000000	      0.00000000	      0.00000000	      0.00000000	      0.00000000	      0.00000000	      0.00000000	      0.00000000
      1.03000000	     -2.66226084	    -10.10431535	     89.87042937	      0.19427175	      0.97097093	      0.30167812	     36.99558280	     -2.00611184	     -8.00977936	     11.01673044	      0.19227822	      1.28067579	      0.00000000	      0.00000000	     -6.84955663	      5.40529224	      4.27229476	     -1.28323431	     -0.02239666	     11.04643738	      0.00000000	     -0.00000000	     -1.33970954	     -3.48030571	     -5.14064941	     -0.00000000	     -0.00000000	      0.00000000	      0.00000000	      0.00000000	     -0.00000000	      0.00000000	     -0.00000000	      0.00000000	     -0.00000000	      0.00000000	      0.00000000	      0.00000000	      0.00000000
      1.04000000	     -2.97952235	    -10.22539045	     89.88640985	      0.19482451	      0.96619251	      0.28218256	     37.32074290	     -2.09119859	     -7.95099180	      7.93260863	      0.13845014	      1.23110251	      0.00000000	      0.00000000	     -8.08048403	      5.67992132	      4.44757337	     -1.36077765	     -0.02375005	     11.61712693	      0.00000000	      0.00000000	     -1.19745337	     -3.81697773	     -5.27987769	      0.00000000	      0.00000000	      0.00000000	      0.00000000	      0.00000000	      0.00000000	      0.00000000	      0.00000000	      0.00000000	      0.00000000	      0.00000000	      0.00000000	      0.00000000	      0.00000000
      1.05000000	     -3.25729395	    -10.48125350	     89.89884515	      0.19542866	      0.96134408	      0.26255322	     37.78559889	     -2.13743994	     -7.61848201	      5.37798106	      0.09386348	      1.35294600	      0.00000000	      0.00000000	     -9.05451777	      5.89740835	      4.66736707	     -1.20882226	     -0.02109793	     12.07618420	      0.00000000	      0.00000000	     -0.88094148	     -4.10651656	     -5.44235346	      0.00000000	      0.00000000	      0.00000000	      0.00000000	      0.00000000	      0.00000000	      0.00000000	      0.00000000	      0.00000000	      0.00000000	      0.00000000	      0.00000000	      0.00000000	      0.00000000
